<?xml version="1.0" encoding="UTF-8" standalone="no"?>
<svg
   xmlns:dc="http://purl.org/dc/elements/1.1/"
   xmlns:cc="http://creativecommons.org/ns#"
   xmlns:rdf="http://www.w3.org/1999/02/22-rdf-syntax-ns#"
   xmlns:svg="http://www.w3.org/2000/svg"
   xmlns="http://www.w3.org/2000/svg"
   width="48"
   height="48"
   viewBox="0 0 48 48"
   id="svg4479"
   version="1.1">
  <defs
     id="defs4481" />
  <metadata
     id="metadata4484">
    <rdf:RDF>
      <cc:Work
         rdf:about="">
        <dc:format>image/svg+xml</dc:format>
        <dc:type
           rdf:resource="http://purl.org/dc/dcmitype/StillImage" />
        <dc:title></dc:title>
      </cc:Work>
    </rdf:RDF>
  </metadata>
  <g
     id="g4181">
    <path
       style="color:#000000;clip-rule:nonzero;display:inline;overflow:visible;visibility:visible;opacity:0.98999999;isolation:auto;mix-blend-mode:normal;color-interpolation:sRGB;color-interpolation-filters:linearRGB;solid-color:#000000;solid-opacity:1;fill:#feda5f;fill-opacity:1;fill-rule:evenodd;stroke:none;stroke-width:1;stroke-linecap:round;stroke-linejoin:miter;stroke-miterlimit:4;stroke-dasharray:none;stroke-dashoffset:0.5;stroke-opacity:1;color-rendering:auto;image-rendering:auto;shape-rendering:auto;text-rendering:auto;enable-background:accumulate"
       d="m 17.055011,44.480751 -0.541776,1.095049 14.99437,0 -0.541773,-1.095049 -13.910821,0 z"
       id="rect4692" />
    <path
       style="color:#000000;clip-rule:nonzero;display:inline;overflow:visible;visibility:visible;opacity:0.98999999;isolation:auto;mix-blend-mode:normal;color-interpolation:sRGB;color-interpolation-filters:linearRGB;solid-color:#000000;solid-opacity:1;fill:#feda5f;fill-opacity:1;fill-rule:evenodd;stroke:none;stroke-width:1;stroke-linecap:round;stroke-linejoin:miter;stroke-miterlimit:4;stroke-dasharray:none;stroke-dashoffset:0.5;stroke-opacity:1;color-rendering:auto;image-rendering:auto;shape-rendering:auto;text-rendering:auto;enable-background:accumulate"
       d="m 18.507888,41.543385 -0.541776,1.095045 12.08862,0 -0.541776,-1.095045 -11.005068,0 z"
       id="rect4684" />
    <path
       style="color:#000000;clip-rule:nonzero;display:inline;overflow:visible;visibility:visible;opacity:0.98999999;isolation:auto;mix-blend-mode:normal;color-interpolation:sRGB;color-interpolation-filters:linearRGB;solid-color:#000000;solid-opacity:1;fill:#feda5f;fill-opacity:1;fill-rule:evenodd;stroke:none;stroke-width:1.54602563;stroke-linecap:round;stroke-linejoin:miter;stroke-miterlimit:4;stroke-dasharray:none;stroke-dashoffset:0.5;stroke-opacity:1;color-rendering:auto;image-rendering:auto;shape-rendering:auto;text-rendering:auto;enable-background:accumulate"
       d="m 29.607084,41.069871 2.852578,5.767672 1.67275,-0.60285 -2.55439,-5.164822 -1.970938,0 z"
       id="rect4676" />
    <path
       style="color:#000000;clip-rule:nonzero;display:inline;overflow:visible;visibility:visible;opacity:0.98999999;isolation:auto;mix-blend-mode:normal;color-interpolation:sRGB;color-interpolation-filters:linearRGB;solid-color:#000000;solid-opacity:1;fill:#feda5f;fill-opacity:1;fill-rule:evenodd;stroke:none;stroke-width:1.54602563;stroke-linecap:round;stroke-linejoin:miter;stroke-miterlimit:4;stroke-dasharray:none;stroke-dashoffset:0.5;stroke-opacity:1;color-rendering:auto;image-rendering:auto;shape-rendering:auto;text-rendering:auto;enable-background:accumulate"
       d="m 16.42198,41.069871 -2.554385,5.164822 1.673463,0.60285 2.852582,-5.767672 -1.97166,0 z"
       id="rect4678" />
    <path
       style="color:#000000;clip-rule:nonzero;display:inline;overflow:visible;visibility:visible;opacity:0.98999999;isolation:auto;mix-blend-mode:normal;color-interpolation:sRGB;color-interpolation-filters:linearRGB;solid-color:#000000;solid-opacity:1;fill:#ffdc5e;fill-opacity:1;fill-rule:evenodd;stroke:none;stroke-width:3.65123129;stroke-linecap:round;stroke-linejoin:miter;stroke-miterlimit:4;stroke-dasharray:none;stroke-dashoffset:0.5;stroke-opacity:1;color-rendering:auto;image-rendering:auto;shape-rendering:auto;text-rendering:auto;enable-background:accumulate"
       d="m 13.851787,13.484627 c -0.794031,0 -1.433478,0.638726 -1.433478,1.432757 l 0,24.047901 c 0,0.794027 0.639447,1.433474 1.433478,1.433474 l 20.296433,0 c 0.794027,0 1.433474,-0.639447 1.433474,-1.433474 l 0,-24.047901 c 0,-0.794031 -0.639447,-1.432757 -1.433474,-1.432757 l -20.296433,0 z m 3.593386,3.07389 13.193727,0 c 0.547559,0 0.988703,0.673639 0.988703,1.510359 l 0,12.952296 -15.171133,0 0,-12.952296 c 0,-0.83672 0.441147,-1.510359 0.988703,-1.510359 z m -3.33256,0.872299 1.424854,0 c 0.09364,0 0.168854,0.07521 0.168854,0.168854 l 0,13.252644 c 0,0.09365 -0.07521,0.168858 -0.168854,0.168858 l -1.424854,0 c -0.09364,0 -0.168854,-0.07521 -0.168854,-0.168858 l 0,-13.252644 c 0,-0.09364 0.07521,-0.168854 0.168854,-0.168854 z m 18.433993,0 1.424854,0 c 0.09364,0 0.168854,0.07521 0.168854,0.168854 l 0,13.252644 c 0,0.09365 -0.07521,0.168858 -0.168854,0.168858 l -1.424854,0 c -0.09364,0 -0.168854,-0.07521 -0.168854,-0.168858 l 0,-13.252644 c 0,-0.09364 0.07521,-0.168854 0.168854,-0.168854 z m -17.542292,17.84264 4.344256,0 0,2.994131 -3.156521,0 c -0.657834,0 -1.187735,-0.496489 -1.187735,-1.113009 l 0,-1.881122 z m 13.702445,0 4.34426,0 0,1.881122 c 0,0.61652 -0.529187,1.113009 -1.187021,1.113009 l -3.157239,0 0,-2.994131 z"
       id="rect4512" />
    <path
       style="color:#000000;clip-rule:nonzero;display:inline;overflow:visible;visibility:visible;opacity:0.98999999;isolation:auto;mix-blend-mode:normal;color-interpolation:sRGB;color-interpolation-filters:linearRGB;solid-color:#000000;solid-opacity:1;fill:none;fill-opacity:1;fill-rule:evenodd;stroke:#ffdc5e;stroke-width:1.04050636;stroke-linecap:round;stroke-linejoin:miter;stroke-miterlimit:4;stroke-dasharray:none;stroke-dashoffset:0.5;stroke-opacity:1;color-rendering:auto;image-rendering:auto;shape-rendering:auto;text-rendering:auto;enable-background:accumulate"
       id="path4607"
       d="M 29.024793,8.7468007 24.000078,15.658964 18.97536,8.7468014 Z" />
    <path
       style="font-style:normal;font-variant:normal;font-weight:normal;font-stretch:normal;font-size:medium;line-height:125%;font-family:Jaapokki;-inkscape-font-specification:Jaapokki;letter-spacing:0px;word-spacing:0px;fill:#ffdc5e;fill-opacity:1;stroke:none;stroke-width:1px;stroke-linecap:butt;stroke-linejoin:miter;stroke-opacity:1"
       id="path4147"
       d="m 12.684992,1.1708628 0,1.177261 1.639757,0 0,4.7174468 1.177257,0 0,-4.7174468 1.631347,0 0,-1.177261 -4.448361,0 z" />
    <path
       style="font-style:normal;font-variant:normal;font-weight:normal;font-stretch:normal;font-size:medium;line-height:125%;font-family:Jaapokki;-inkscape-font-specification:Jaapokki;letter-spacing:0px;word-spacing:0px;fill:#ffdc5e;fill-opacity:1;stroke:none;stroke-width:1px;stroke-linecap:butt;stroke-linejoin:miter;stroke-opacity:1"
       id="path4149"
       d="M 22.135915,7.0655706 20.967067,4.5428715 c 0.613857,-0.277499 1.034307,-0.8913557 1.034307,-1.6061171 0,-0.9754443 -0.790448,-1.7742979 -1.765892,-1.7742979 l -2.219974,0 0,5.8947042 1.177261,0 0,-2.3545184 0.588627,0 1.101579,2.3629283 1.25294,0 z M 20.235482,2.3397139 c 0.327951,0 0.588631,0.2690891 0.588631,0.5970405 0,0.3279477 -0.26068,0.5886268 -0.588631,0.5886268 l -1.042713,0 0,-1.1856673 1.042713,0 z" />
    <path
       style="font-style:normal;font-variant:normal;font-weight:normal;font-stretch:normal;font-size:medium;line-height:125%;font-family:Jaapokki;-inkscape-font-specification:Jaapokki;letter-spacing:0px;word-spacing:0px;fill:#ffdc5e;fill-opacity:1;stroke:none;stroke-width:1px;stroke-linecap:butt;stroke-linejoin:miter;stroke-opacity:1"
       id="path4151"
       d="m 27.437,7.0655706 1.303395,0 -2.783378,-5.8947078 -0.344771,0 -3.002012,5.8947078 1.320212,0 0.554995,-1.0931688 2.43861,0 L 27.437,7.0655706 Z M 25.090891,4.7951407 25.7552,3.4833388 l 0.613857,1.3118019 -1.278166,0 z" />
    <path
       style="font-style:normal;font-variant:normal;font-weight:normal;font-stretch:normal;font-size:medium;line-height:125%;font-family:Jaapokki;-inkscape-font-specification:Jaapokki;letter-spacing:0px;word-spacing:0px;fill:#ffdc5e;fill-opacity:1;stroke:none;stroke-width:1px;stroke-linecap:butt;stroke-linejoin:miter;stroke-opacity:1"
       id="path4153"
       d="m 34.137525,7.0655706 0,-3.6074617 -1.690209,1.5388486 -1.690209,-1.5388486 0,3.6074617 -1.177258,0 0,-5.8947078 0.40363,0 2.463837,2.2367938 2.455427,-2.2367938 0.41204,0 0,5.8947078 -1.177258,0 z" />
  </g>
</svg>
